<svg xmlns="http://www.w3.org/2000/svg" viewBox="0 0 1000 1000" width="1000" height="1000">
  <defs>
    <clipPath id="clip-0"><path d="M 500.00 500.00 L 1000.00 500.00 L 1000.00 534.44 L 1000.00 600.44 Z"/></clipPath>
    <clipPath id="clip-1"><path d="M 500.00 500.00 L 1000.00 588.10 L 1000.00 714.51 L 1000.00 662.44 Z"/></clipPath>
    <clipPath id="clip-2"><path d="M 500.00 500.00 L 1000.00 680.36 L 1000.00 725.09 L 1000.00 731.66 Z"/></clipPath>
    <clipPath id="clip-3"><path d="M 500.00 500.00 L 1000.00 747.72 L 1000.00 849.27 L 1000.00 883.26 Z"/></clipPath>
    <clipPath id="clip-4"><path d="M 500.00 500.00 L 1000.00 852.69 L 1000.00 889.64 L 1000.00 960.96 Z"/></clipPath>
    <clipPath id="clip-5"><path d="M 500.00 500.00 L 982.70 859.30 L 1000.00 918.19 L 970.24 964.89 Z"/></clipPath>
    <clipPath id="clip-6"><path d="M 500.00 500.00 L 1000.00 1000.00 L 1000.00 1000.00 L 966.95 1000.00 Z"/></clipPath>
    <clipPath id="clip-7"><path d="M 500.00 500.00 L 906.43 1000.00 L 884.22 1000.00 L 895.45 1000.00 Z"/></clipPath>
    <clipPath id="clip-8"><path d="M 500.00 500.00 L 824.98 1000.00 L 881.94 1000.00 L 775.49 1000.00 Z"/></clipPath>
    <clipPath id="clip-9"><path d="M 500.00 500.00 L 802.80 1000.00 L 851.48 1000.00 L 689.40 1000.00 Z"/></clipPath>
    <clipPath id="clip-10"><path d="M 500.00 500.00 L 695.85 1000.00 L 684.85 1000.00 L 598.55 1000.00 Z"/></clipPath>
    <clipPath id="clip-11"><path d="M 500.00 500.00 L 616.64 1000.00 L 566.46 1000.00 L 521.47 1000.00 Z"/></clipPath>
    <clipPath id="clip-12"><path d="M 500.00 500.00 L 519.04 1000.00 L 469.02 1000.00 L 431.17 1000.00 Z"/></clipPath>
    <clipPath id="clip-13"><path d="M 500.00 500.00 L 433.60 1000.00 L 350.25 1000.00 L 377.53 1000.00 Z"/></clipPath>
    <clipPath id="clip-14"><path d="M 500.00 500.00 L 354.91 1000.00 L 312.55 1000.00 L 279.70 1000.00 Z"/></clipPath>
    <clipPath id="clip-15"><path d="M 500.00 500.00 L 267.77 1000.00 L 82.40 1000.00 L 181.40 1000.00 Z"/></clipPath>
    <clipPath id="clip-16"><path d="M 500.00 500.00 L 199.85 1000.00 L 73.35 1000.00 L 103.89 1000.00 Z"/></clipPath>
    <clipPath id="clip-17"><path d="M 500.00 500.00 L 59.93 1000.00 L 0.00 1000.00 L 57.66 986.69 Z"/></clipPath>
    <clipPath id="clip-18"><path d="M 500.00 500.00 L 78.23 964.07 L 0.00 1000.00 L 0.00 979.51 Z"/></clipPath>
    <clipPath id="clip-19"><path d="M 500.00 500.00 L 0.00 948.55 L 20.66 871.71 L 0.55 823.60 Z"/></clipPath>
    <clipPath id="clip-20"><path d="M 500.00 500.00 L 0.00 929.63 L 0.00 805.73 L 0.00 824.94 Z"/></clipPath>
    <clipPath id="clip-21"><path d="M 500.00 500.00 L 0.00 753.09 L 0.00 678.71 L 0.00 722.36 Z"/></clipPath>
    <clipPath id="clip-22"><path d="M 500.00 500.00 L 0.00 698.87 L 0.00 657.42 L 0.00 598.87 Z"/></clipPath>
    <clipPath id="clip-23"><path d="M 500.00 500.00 L 0.00 600.88 L 0.00 565.69 L 0.00 530.48 Z"/></clipPath>
    <clipPath id="clip-24"><path d="M 500.00 500.00 L 0.00 534.13 L 0.00 511.34 L 0.00 426.90 Z"/></clipPath>
    <clipPath id="clip-25"><path d="M 500.00 500.00 L 0.00 420.02 L 0.00 369.32 L 0.00 352.65 Z"/></clipPath>
    <clipPath id="clip-26"><path d="M 500.00 500.00 L 0.00 330.86 L 0.00 314.03 L 0.00 264.50 Z"/></clipPath>
    <clipPath id="clip-27"><path d="M 500.00 500.00 L 0.00 279.86 L 0.00 222.21 L 0.00 200.41 Z"/></clipPath>
    <clipPath id="clip-28"><path d="M 500.00 500.00 L 0.00 211.54 L 0.00 139.75 L 1.21 149.01 Z"/></clipPath>
    <clipPath id="clip-29"><path d="M 500.00 500.00 L 0.00 48.17 L 0.00 108.61 L 0.00 0.00 Z"/></clipPath>
    <clipPath id="clip-30"><path d="M 500.00 500.00 L 0.00 0.00 L 0.00 0.00 L 99.71 0.64 Z"/></clipPath>
    <clipPath id="clip-31"><path d="M 500.00 500.00 L 52.85 0.00 L 37.10 0.00 L 146.75 0.00 Z"/></clipPath>
    <clipPath id="clip-32"><path d="M 500.00 500.00 L 176.91 0.00 L 158.41 0.00 L 260.60 0.00 Z"/></clipPath>
    <clipPath id="clip-33"><path d="M 500.00 500.00 L 230.36 0.00 L 228.04 0.00 L 316.37 0.00 Z"/></clipPath>
    <clipPath id="clip-34"><path d="M 500.00 500.00 L 348.88 0.00 L 314.52 0.00 L 418.60 0.00 Z"/></clipPath>
    <clipPath id="clip-35"><path d="M 500.00 500.00 L 422.47 0.00 L 454.83 0.00 L 509.37 0.00 Z"/></clipPath>
    <clipPath id="clip-36"><path d="M 500.00 500.00 L 509.65 0.00 L 616.03 0.00 L 603.56 0.00 Z"/></clipPath>
    <clipPath id="clip-37"><path d="M 500.00 500.00 L 624.11 0.00 L 646.99 0.00 L 708.72 0.00 Z"/></clipPath>
    <clipPath id="clip-38"><path d="M 500.00 500.00 L 726.34 0.00 L 877.51 0.00 L 843.93 0.00 Z"/></clipPath>
    <clipPath id="clip-39"><path d="M 500.00 500.00 L 771.32 0.00 L 831.34 0.00 L 882.63 0.00 Z"/></clipPath>
    <clipPath id="clip-40"><path d="M 500.00 500.00 L 833.40 0.00 L 959.42 0.00 L 945.85 0.00 Z"/></clipPath>
    <clipPath id="clip-41"><path d="M 500.00 500.00 L 1000.00 0.00 L 1000.00 0.00 L 1000.00 37.40 Z"/></clipPath>
    <clipPath id="clip-42"><path d="M 500.00 500.00 L 1000.00 0.00 L 1000.00 111.44 L 1000.00 91.03 Z"/></clipPath>
    <clipPath id="clip-43"><path d="M 500.00 500.00 L 1000.00 122.29 L 1000.00 99.25 L 1000.00 125.81 Z"/></clipPath>
    <clipPath id="clip-44"><path d="M 500.00 500.00 L 1000.00 147.53 L 1000.00 188.75 L 1000.00 279.51 Z"/></clipPath>
    <clipPath id="clip-45"><path d="M 500.00 500.00 L 1000.00 218.82 L 1000.00 352.80 L 1000.00 344.84 Z"/></clipPath>
    <clipPath id="clip-46"><path d="M 500.00 500.00 L 1000.00 343.37 L 1000.00 389.64 L 1000.00 404.70 Z"/></clipPath>
    <clipPath id="clip-47"><path d="M 500.00 500.00 L 1000.00 417.91 L 1000.00 414.50 L 1000.00 500.00 Z"/></clipPath>
  </defs>
  <g id="shard-0" data-cx="833.33" data-cy="511.48" clip-path="url(#clip-0)">
    <image href="logo.png" x="0" y="0" width="1000" height="1000" />
  </g>
  <g id="shard-1" data-cx="833.33" data-cy="600.87" clip-path="url(#clip-1)">
    <image href="logo.png" x="0" y="0" width="1000" height="1000" />
  </g>
  <g id="shard-2" data-cx="833.33" data-cy="635.15" clip-path="url(#clip-2)">
    <image href="logo.png" x="0" y="0" width="1000" height="1000" />
  </g>
  <g id="shard-3" data-cx="833.33" data-cy="699.00" clip-path="url(#clip-3)">
    <image href="logo.png" x="0" y="0" width="1000" height="1000" />
  </g>
  <g id="shard-4" data-cx="833.33" data-cy="747.44" clip-path="url(#clip-4)">
    <image href="logo.png" x="0" y="0" width="1000" height="1000" />
  </g>
  <g id="shard-5" data-cx="827.57" data-cy="759.16" clip-path="url(#clip-5)">
    <image href="logo.png" x="0" y="0" width="1000" height="1000" />
  </g>
  <g id="shard-6" data-cx="833.33" data-cy="833.33" clip-path="url(#clip-6)">
    <image href="logo.png" x="0" y="0" width="1000" height="1000" />
  </g>
  <g id="shard-7" data-cx="763.55" data-cy="833.33" clip-path="url(#clip-7)">
    <image href="logo.png" x="0" y="0" width="1000" height="1000" />
  </g>
  <g id="shard-8" data-cx="735.64" data-cy="833.33" clip-path="url(#clip-8)">
    <image href="logo.png" x="0" y="0" width="1000" height="1000" />
  </g>
  <g id="shard-9" data-cx="718.09" data-cy="833.33" clip-path="url(#clip-9)">
    <image href="logo.png" x="0" y="0" width="1000" height="1000" />
  </g>
  <g id="shard-10" data-cx="626.90" data-cy="833.33" clip-path="url(#clip-10)">
    <image href="logo.png" x="0" y="0" width="1000" height="1000" />
  </g>
  <g id="shard-11" data-cx="561.03" data-cy="833.33" clip-path="url(#clip-11)">
    <image href="logo.png" x="0" y="0" width="1000" height="1000" />
  </g>
  <g id="shard-12" data-cx="496.02" data-cy="833.33" clip-path="url(#clip-12)">
    <image href="logo.png" x="0" y="0" width="1000" height="1000" />
  </g>
  <g id="shard-13" data-cx="427.95" data-cy="833.33" clip-path="url(#clip-13)">
    <image href="logo.png" x="0" y="0" width="1000" height="1000" />
  </g>
  <g id="shard-14" data-cx="389.15" data-cy="833.33" clip-path="url(#clip-14)">
    <image href="logo.png" x="0" y="0" width="1000" height="1000" />
  </g>
  <g id="shard-15" data-cx="283.39" data-cy="833.33" clip-path="url(#clip-15)">
    <image href="logo.png" x="0" y="0" width="1000" height="1000" />
  </g>
  <g id="shard-16" data-cx="257.73" data-cy="833.33" clip-path="url(#clip-16)">
    <image href="logo.png" x="0" y="0" width="1000" height="1000" />
  </g>
  <g id="shard-17" data-cx="186.64" data-cy="833.33" clip-path="url(#clip-17)">
    <image href="logo.png" x="0" y="0" width="1000" height="1000" />
  </g>
  <g id="shard-18" data-cx="192.74" data-cy="821.36" clip-path="url(#clip-18)">
    <image href="logo.png" x="0" y="0" width="1000" height="1000" />
  </g>
  <g id="shard-19" data-cx="173.55" data-cy="773.42" clip-path="url(#clip-19)">
    <image href="logo.png" x="0" y="0" width="1000" height="1000" />
  </g>
  <g id="shard-20" data-cx="166.67" data-cy="745.12" clip-path="url(#clip-20)">
    <image href="logo.png" x="0" y="0" width="1000" height="1000" />
  </g>
  <g id="shard-21" data-cx="166.67" data-cy="643.93" clip-path="url(#clip-21)">
    <image href="logo.png" x="0" y="0" width="1000" height="1000" />
  </g>
  <g id="shard-22" data-cx="166.67" data-cy="618.76" clip-path="url(#clip-22)">
    <image href="logo.png" x="0" y="0" width="1000" height="1000" />
  </g>
  <g id="shard-23" data-cx="166.67" data-cy="555.53" clip-path="url(#clip-23)">
    <image href="logo.png" x="0" y="0" width="1000" height="1000" />
  </g>
  <g id="shard-24" data-cx="166.67" data-cy="515.16" clip-path="url(#clip-24)">
    <image href="logo.png" x="0" y="0" width="1000" height="1000" />
  </g>
  <g id="shard-25" data-cx="166.67" data-cy="429.78" clip-path="url(#clip-25)">
    <image href="logo.png" x="0" y="0" width="1000" height="1000" />
  </g>
  <g id="shard-26" data-cx="166.67" data-cy="381.63" clip-path="url(#clip-26)">
    <image href="logo.png" x="0" y="0" width="1000" height="1000" />
  </g>
  <g id="shard-27" data-cx="166.67" data-cy="334.02" clip-path="url(#clip-27)">
    <image href="logo.png" x="0" y="0" width="1000" height="1000" />
  </g>
  <g id="shard-28" data-cx="166.67" data-cy="283.76" clip-path="url(#clip-28)">
    <image href="logo.png" x="0" y="0" width="1000" height="1000" />
  </g>
  <g id="shard-29" data-cx="166.67" data-cy="218.92" clip-path="url(#clip-29)">
    <image href="logo.png" x="0" y="0" width="1000" height="1000" />
  </g>
  <g id="shard-30" data-cx="166.67" data-cy="166.67" clip-path="url(#clip-30)">
    <image href="logo.png" x="0" y="0" width="1000" height="1000" />
  </g>
  <g id="shard-31" data-cx="196.65" data-cy="166.67" clip-path="url(#clip-31)">
    <image href="logo.png" x="0" y="0" width="1000" height="1000" />
  </g>
  <g id="shard-32" data-cx="278.44" data-cy="166.67" clip-path="url(#clip-32)">
    <image href="logo.png" x="0" y="0" width="1000" height="1000" />
  </g>
  <g id="shard-33" data-cx="319.47" data-cy="166.67" clip-path="url(#clip-33)">
    <image href="logo.png" x="0" y="0" width="1000" height="1000" />
  </g>
  <g id="shard-34" data-cx="387.80" data-cy="166.67" clip-path="url(#clip-34)">
    <image href="logo.png" x="0" y="0" width="1000" height="1000" />
  </g>
  <g id="shard-35" data-cx="459.10" data-cy="166.67" clip-path="url(#clip-35)">
    <image href="logo.png" x="0" y="0" width="1000" height="1000" />
  </g>
  <g id="shard-36" data-cx="541.89" data-cy="166.67" clip-path="url(#clip-36)">
    <image href="logo.png" x="0" y="0" width="1000" height="1000" />
  </g>
  <g id="shard-37" data-cx="590.37" data-cy="166.67" clip-path="url(#clip-37)">
    <image href="logo.png" x="0" y="0" width="1000" height="1000" />
  </g>
  <g id="shard-38" data-cx="701.28" data-cy="166.67" clip-path="url(#clip-38)">
    <image href="logo.png" x="0" y="0" width="1000" height="1000" />
  </g>
  <g id="shard-39" data-cx="700.89" data-cy="166.67" clip-path="url(#clip-39)">
    <image href="logo.png" x="0" y="0" width="1000" height="1000" />
  </g>
  <g id="shard-40" data-cx="764.27" data-cy="166.67" clip-path="url(#clip-40)">
    <image href="logo.png" x="0" y="0" width="1000" height="1000" />
  </g>
  <g id="shard-41" data-cx="833.33" data-cy="166.67" clip-path="url(#clip-41)">
    <image href="logo.png" x="0" y="0" width="1000" height="1000" />
  </g>
  <g id="shard-42" data-cx="833.33" data-cy="203.81" clip-path="url(#clip-42)">
    <image href="logo.png" x="0" y="0" width="1000" height="1000" />
  </g>
  <g id="shard-43" data-cx="833.33" data-cy="240.52" clip-path="url(#clip-43)">
    <image href="logo.png" x="0" y="0" width="1000" height="1000" />
  </g>
  <g id="shard-44" data-cx="833.33" data-cy="278.76" clip-path="url(#clip-44)">
    <image href="logo.png" x="0" y="0" width="1000" height="1000" />
  </g>
  <g id="shard-45" data-cx="833.33" data-cy="357.21" clip-path="url(#clip-45)">
    <image href="logo.png" x="0" y="0" width="1000" height="1000" />
  </g>
  <g id="shard-46" data-cx="833.33" data-cy="411.00" clip-path="url(#clip-46)">
    <image href="logo.png" x="0" y="0" width="1000" height="1000" />
  </g>
  <g id="shard-47" data-cx="833.33" data-cy="444.14" clip-path="url(#clip-47)">
    <image href="logo.png" x="0" y="0" width="1000" height="1000" />
  </g>
</svg>
