<?xml version="1.0" encoding="UTF-8"?>
<svg xmlns="http://www.w3.org/2000/svg" width="1536" height="864" viewBox="0 0 1536 864">
  <rect width="100%" height="100%" fill="white"/>
  <path d="M 0.0 134.0 L 1.0 140.0 L 138.0 166.0 L 175.0 225.0 L 174.0 262.0 L 172.0 272.0 L 35.0 304.0 L 0.0 296.0 L 0.0 301.0 L 33.0 309.0 L 177.0 416.0 L 175.0 476.0 L 173.0 478.0 L 102.0 514.0 L 0.0 561.0 L 0.0 567.0 L 105.0 519.0 L 174.0 483.0 L 179.0 482.0 L 239.0 509.0 L 257.0 580.0 L 258.0 591.0 L 168.0 660.0 L 0.0 594.0 L 0.0 600.0 L 92.0 635.0 L 166.0 666.0 L 172.0 682.0 L 163.0 863.0 L 168.0 863.0 L 176.0 710.0 L 177.0 693.0 L 179.0 687.0 L 246.0 711.0 L 306.0 730.0 L 308.0 732.0 L 351.0 863.0 L 357.0 863.0 L 312.0 729.0 L 367.0 645.0 L 374.0 645.0 L 433.0 678.0 L 447.0 701.0 L 407.0 863.0 L 413.0 863.0 L 447.0 723.0 L 453.0 705.0 L 566.0 720.0 L 597.0 863.0 L 602.0 863.0 L 602.0 858.0 L 571.0 718.0 L 577.0 691.0 L 580.0 690.0 L 689.0 727.0 L 691.0 730.0 L 617.0 862.0 L 623.0 863.0 L 695.0 734.0 L 712.0 712.0 L 779.0 692.0 L 843.0 807.0 L 845.0 863.0 L 851.0 863.0 L 848.0 809.0 L 930.0 693.0 L 964.0 686.0 L 970.0 686.0 L 972.0 690.0 L 1009.0 863.0 L 1015.0 863.0 L 976.0 683.0 L 1013.0 658.0 L 1046.0 648.0 L 1058.0 660.0 L 1108.0 722.0 L 1105.0 734.0 L 1057.0 863.0 L 1063.0 863.0 L 1114.0 726.0 L 1198.0 712.0 L 1204.0 712.0 L 1314.0 861.0 L 1316.0 863.0 L 1322.0 863.0 L 1209.0 709.0 L 1209.0 704.0 L 1222.0 668.0 L 1368.0 634.0 L 1394.0 639.0 L 1486.0 665.0 L 1487.0 863.0 L 1535.0 863.0 L 1535.0 0.0 L 1486.0 0.0 L 1486.0 200.0 L 1448.0 214.0 L 1269.0 206.0 L 1262.0 184.0 L 1261.0 175.0 L 1392.0 0.0 L 1386.0 0.0 L 1256.0 172.0 L 1172.0 125.0 L 1164.0 119.0 L 1160.0 109.0 L 1169.0 0.0 L 1164.0 0.0 L 1155.0 107.0 L 1129.0 118.0 L 1034.0 152.0 L 997.0 121.0 L 998.0 0.0 L 992.0 0.0 L 990.0 121.0 L 941.0 131.0 L 859.0 68.0 L 843.0 0.0 L 838.0 0.0 L 854.0 70.0 L 825.0 146.0 L 726.0 167.0 L 715.0 166.0 L 675.0 132.0 L 702.0 0.0 L 696.0 0.0 L 670.0 131.0 L 617.0 162.0 L 538.0 70.0 L 543.0 0.0 L 537.0 0.0 L 533.0 71.0 L 514.0 102.0 L 511.0 105.0 L 441.0 130.0 L 407.0 99.0 L 418.0 0.0 L 412.0 0.0 L 402.0 98.0 L 397.0 101.0 L 293.0 83.0 L 291.0 81.0 L 292.0 0.0 L 286.0 0.0 L 286.0 83.0 L 260.0 115.0 L 195.0 106.0 L 143.0 0.0 L 138.0 0.0 L 145.0 18.0 L 189.0 107.0 L 139.0 161.0 Z M 579.0 664.0 L 643.0 636.0 L 707.0 709.0 L 694.0 723.0 L 600.0 692.0 L 579.0 683.0 Z M 442.0 679.0 L 512.0 629.0 L 537.0 629.0 L 573.0 663.0 L 573.0 687.0 L 565.0 714.0 L 455.0 700.0 L 451.0 698.0 Z M 829.0 625.0 L 858.0 643.0 L 925.0 690.0 L 847.0 801.0 L 842.0 795.0 L 784.0 689.0 L 806.0 638.0 Z M 171.0 665.0 L 262.0 595.0 L 318.0 610.0 L 361.0 644.0 L 307.0 725.0 L 180.0 682.0 L 177.0 680.0 Z M 1078.0 596.0 L 1111.0 578.0 L 1196.0 604.0 L 1216.0 664.0 L 1203.0 705.0 L 1199.0 707.0 L 1113.0 719.0 L 1052.0 644.0 Z M 837.0 613.0 L 856.0 604.0 L 903.0 576.0 L 970.0 679.0 L 955.0 683.0 L 929.0 686.0 L 834.0 620.0 Z M 452.0 564.0 L 507.0 626.0 L 448.0 668.0 L 436.0 674.0 L 378.0 641.0 L 415.0 577.0 L 419.0 574.0 Z M 672.0 566.0 L 708.0 561.0 L 801.0 637.0 L 778.0 686.0 L 712.0 705.0 L 650.0 636.0 L 647.0 630.0 Z M 642.0 545.0 L 663.0 563.0 L 665.0 567.0 L 641.0 630.0 L 577.0 659.0 L 542.0 625.0 L 564.0 542.0 L 576.0 541.0 Z M 1203.0 601.0 L 1255.0 531.0 L 1364.0 629.0 L 1222.0 662.0 L 1209.0 625.0 Z M 938.0 523.0 L 944.0 523.0 L 946.0 525.0 L 1008.0 653.0 L 1004.0 658.0 L 976.0 676.0 L 908.0 573.0 Z M 994.0 503.0 L 1011.0 520.0 L 1073.0 593.0 L 1046.0 643.0 L 1015.0 652.0 L 1013.0 651.0 L 951.0 523.0 L 958.0 518.0 Z M 484.0 511.0 L 527.0 502.0 L 559.0 538.0 L 538.0 619.0 L 535.0 624.0 L 513.0 623.0 L 456.0 560.0 Z M 755.0 480.0 L 821.0 547.0 L 830.0 614.0 L 827.0 620.0 L 806.0 632.0 L 804.0 632.0 L 712.0 557.0 Z M 876.0 475.0 L 932.0 522.0 L 902.0 571.0 L 837.0 607.0 L 835.0 605.0 L 827.0 546.0 Z M 352.0 473.0 L 411.0 572.0 L 374.0 638.0 L 371.0 640.0 L 365.0 640.0 L 323.0 607.0 L 347.0 490.0 Z M 345.0 468.0 L 346.0 470.0 L 318.0 603.0 L 313.0 604.0 L 266.0 590.0 L 264.0 588.0 L 245.0 509.0 Z M 871.0 470.0 L 838.0 521.0 L 823.0 541.0 L 757.0 474.0 L 759.0 468.0 L 791.0 466.0 L 861.0 457.0 Z M 401.0 444.0 L 478.0 509.0 L 451.0 558.0 L 416.0 569.0 L 354.0 466.0 Z M 1257.0 490.0 L 1422.0 443.0 L 1485.0 455.0 L 1487.0 479.0 L 1486.0 657.0 L 1482.0 658.0 L 1372.0 628.0 L 1257.0 526.0 Z M 1141.0 436.0 L 1226.0 459.0 L 1251.0 488.0 L 1251.0 526.0 L 1198.0 598.0 L 1115.0 573.0 L 1131.0 482.0 Z M 1133.0 437.0 L 1134.0 440.0 L 1109.0 573.0 L 1077.0 589.0 L 1001.0 500.0 L 1117.0 435.0 Z M 552.0 430.0 L 622.0 432.0 L 628.0 434.0 L 640.0 536.0 L 639.0 540.0 L 564.0 535.0 L 532.0 499.0 Z M 992.0 498.0 L 950.0 516.0 L 936.0 518.0 L 876.0 468.0 L 868.0 455.0 L 876.0 431.0 L 977.0 421.0 Z M 660.0 412.0 L 727.0 436.0 L 747.0 457.0 L 753.0 467.0 L 747.0 482.0 L 708.0 553.0 L 704.0 556.0 L 669.0 561.0 L 646.0 541.0 L 637.0 455.0 L 633.0 432.0 Z M 433.0 399.0 L 527.0 401.0 L 547.0 428.0 L 526.0 497.0 L 482.0 505.0 L 406.0 440.0 Z M 1015.0 361.0 L 1043.0 371.0 L 1111.0 432.0 L 998.0 495.0 L 983.0 417.0 L 1011.0 363.0 Z M 242.0 348.0 L 292.0 371.0 L 345.0 462.0 L 241.0 504.0 L 183.0 478.0 L 181.0 476.0 L 183.0 414.0 Z M 849.0 342.0 L 866.0 360.0 L 872.0 428.0 L 863.0 451.0 L 758.0 463.0 L 752.0 453.0 Z M 1419.0 438.0 L 1257.0 484.0 L 1251.0 480.0 L 1231.0 456.0 L 1271.0 362.0 L 1312.0 329.0 L 1328.0 332.0 Z M 1008.0 358.0 L 1003.0 365.0 L 980.0 412.0 L 977.0 415.0 L 885.0 425.0 L 877.0 424.0 L 872.0 362.0 L 874.0 360.0 L 992.0 328.0 Z M 410.0 331.0 L 428.0 395.0 L 398.0 440.0 L 351.0 461.0 L 297.0 369.0 L 366.0 324.0 Z M 694.0 323.0 L 761.0 360.0 L 727.0 431.0 L 662.0 406.0 L 661.0 388.0 L 689.0 330.0 Z M 834.0 320.0 L 844.0 334.0 L 845.0 338.0 L 748.0 450.0 L 733.0 434.0 L 766.0 361.0 Z M 1168.0 315.0 L 1266.0 361.0 L 1225.0 453.0 L 1154.0 434.0 L 1145.0 430.0 L 1166.0 317.0 Z M 549.0 324.0 L 577.0 309.0 L 656.0 390.0 L 656.0 407.0 L 629.0 427.0 L 551.0 424.0 L 532.0 398.0 L 545.0 333.0 Z M 1157.0 295.0 L 1162.0 311.0 L 1140.0 430.0 L 1137.0 432.0 L 1118.0 430.0 L 1047.0 368.0 L 1126.0 295.0 Z M 238.0 344.0 L 178.0 410.0 L 41.0 308.0 L 176.0 277.0 L 233.0 322.0 Z M 1120.0 293.0 L 1042.0 365.0 L 1014.0 355.0 L 999.0 328.0 L 1001.0 324.0 L 1086.0 275.0 L 1099.0 280.0 Z M 458.0 274.0 L 541.0 325.0 L 531.0 379.0 L 526.0 396.0 L 433.0 392.0 L 417.0 329.0 Z M 692.0 283.0 L 720.0 263.0 L 827.0 296.0 L 830.0 298.0 L 832.0 314.0 L 770.0 352.0 L 763.0 354.0 L 697.0 319.0 L 694.0 312.0 Z M 604.0 263.0 L 687.0 284.0 L 689.0 319.0 L 657.0 383.0 L 581.0 305.0 Z M 1169.0 285.0 L 1257.0 236.0 L 1268.0 253.0 L 1307.0 325.0 L 1291.0 339.0 L 1268.0 355.0 L 1168.0 309.0 L 1163.0 294.0 Z M 316.0 236.0 L 362.0 320.0 L 297.0 362.0 L 291.0 364.0 L 245.0 343.0 L 242.0 338.0 L 238.0 320.0 Z M 979.0 272.0 L 991.0 322.0 L 989.0 324.0 L 874.0 355.0 L 869.0 355.0 L 852.0 337.0 L 838.0 315.0 L 835.0 296.0 L 851.0 265.0 L 869.0 242.0 L 906.0 233.0 Z M 1262.0 232.0 L 1269.0 211.0 L 1375.0 217.0 L 1427.0 218.0 L 1442.0 220.0 L 1327.0 326.0 L 1313.0 324.0 Z M 323.0 218.0 L 344.0 210.0 L 450.0 243.0 L 452.0 247.0 L 454.0 269.0 L 412.0 326.0 L 369.0 319.0 L 350.0 287.0 L 320.0 230.0 Z M 1485.0 206.0 L 1487.0 208.0 L 1487.0 448.0 L 1482.0 449.0 L 1426.0 438.0 L 1333.0 328.0 L 1452.0 218.0 Z M 466.0 227.0 L 518.0 206.0 L 582.0 217.0 L 587.0 219.0 L 599.0 260.0 L 576.0 302.0 L 544.0 320.0 L 459.0 268.0 L 457.0 242.0 Z M 1081.0 233.0 L 1138.0 205.0 L 1141.0 210.0 L 1163.0 281.0 L 1158.0 290.0 L 1125.0 289.0 L 1091.0 270.0 Z M 1035.0 204.0 L 1076.0 233.0 L 1084.0 270.0 L 996.0 320.0 L 984.0 271.0 Z M 280.0 185.0 L 317.0 217.0 L 315.0 229.0 L 234.0 316.0 L 179.0 272.0 L 181.0 227.0 Z M 718.0 172.0 L 846.0 264.0 L 830.0 292.0 L 815.0 286.0 L 721.0 258.0 L 717.0 185.0 Z M 729.0 172.0 L 824.0 152.0 L 863.0 238.0 L 862.0 242.0 L 848.0 259.0 Z M 670.0 137.0 L 676.0 140.0 L 711.0 170.0 L 716.0 258.0 L 689.0 278.0 L 605.0 258.0 L 591.0 216.0 L 617.0 169.0 Z M 1165.0 128.0 L 1254.0 177.0 L 1264.0 208.0 L 1256.0 230.0 L 1169.0 279.0 L 1167.0 278.0 L 1144.0 202.0 Z M 994.0 126.0 L 1030.0 157.0 L 1031.0 200.0 L 979.0 267.0 L 951.0 250.0 L 912.0 230.0 L 910.0 226.0 L 942.0 139.0 L 945.0 136.0 Z M 1156.0 114.0 L 1160.0 125.0 L 1142.0 189.0 L 1137.0 200.0 L 1079.0 227.0 L 1037.0 198.0 L 1035.0 158.0 L 1037.0 156.0 L 1113.0 130.0 L 1152.0 114.0 Z M 259.0 121.0 L 276.0 180.0 L 179.0 221.0 L 144.0 164.0 L 194.0 111.0 Z M 511.0 110.0 L 516.0 175.0 L 516.0 200.0 L 466.0 222.0 L 464.0 220.0 L 443.0 136.0 Z M 403.0 104.0 L 438.0 135.0 L 460.0 224.0 L 452.0 238.0 L 348.0 205.0 L 398.0 107.0 Z M 290.0 88.0 L 379.0 103.0 L 392.0 107.0 L 343.0 203.0 L 321.0 213.0 L 282.0 180.0 L 265.0 121.0 L 270.0 112.0 Z M 536.0 77.0 L 553.0 95.0 L 612.0 166.0 L 586.0 213.0 L 529.0 202.0 L 522.0 199.0 L 517.0 107.0 Z M 858.0 75.0 L 938.0 136.0 L 904.0 227.0 L 869.0 237.0 L 830.0 150.0 Z" fill="black" fill-rule="evenodd" stroke="none"/>
</svg>
